<svg width="425" height="138" viewBox="0 0 425 138" fill="none" xmlns="http://www.w3.org/2000/svg">
<path d="M8.72 57C6.42667 57 4.56 56.3067 3.12 54.92C1.68 53.5333 0.96 51.72 0.96 49.48V0.999996H28.8C33.8667 0.999996 37.92 2.2 40.96 4.6C44.0533 7 45.6 10.2267 45.6 14.28V18.28C45.6 20.04 45.1467 21.72 44.24 23.32C43.3867 24.92 42.16 26.2267 40.56 27.24V27.32C43.12 28.2267 45.1733 29.6933 46.72 31.72C48.32 33.7467 49.12 36.0133 49.12 38.52V42.68C49.12 47.0533 47.52 50.5467 44.32 53.16C41.1733 55.72 36.9067 57 31.52 57H8.72ZM28.8 24.2C30.5067 24.2 31.8933 23.6667 32.96 22.6C34.0267 21.48 34.56 20.0133 34.56 18.2V15.48C34.56 13.9867 34 12.8133 32.88 11.96C31.76 11.0533 30.2667 10.6 28.4 10.6H12V24.2H28.8ZM30.72 47.4C33.0667 47.4 34.88 46.9467 36.16 46.04C37.44 45.08 38.08 43.7467 38.08 42.04V38.52C38.08 36.9733 37.52 35.72 36.4 34.76C35.28 33.8 33.7867 33.32 31.92 33.32H12V47.4H30.72ZM67.7144 57.64C63.5544 57.64 60.1944 56.6 57.6344 54.52C55.0744 52.44 53.7944 49.6933 53.7944 46.28V43.32C53.7944 39.96 55.1277 37.2667 57.7944 35.24C60.461 33.16 63.981 32.12 68.3544 32.12H73.2344C74.621 32.12 76.1144 32.3067 77.7144 32.68C79.3144 33.0533 80.781 33.56 82.1144 34.2V30.04C82.1144 28.7067 81.661 27.64 80.7544 26.84C79.901 25.9867 78.7544 25.56 77.3144 25.56H70.4344C68.941 25.56 67.741 25.9067 66.8344 26.6C65.9277 27.2933 65.4744 28.2267 65.4744 29.4H54.9144C54.9144 25.5067 56.3277 22.3867 59.1544 20.04C62.0344 17.64 65.7944 16.44 70.4344 16.44H77.3144C82.0077 16.44 85.7944 17.6933 88.6744 20.2C91.5544 22.6533 92.9944 25.9333 92.9944 30.04V57H82.9144V52.2C81.6344 53.8533 80.061 55.1867 78.1944 56.2C76.3277 57.16 74.4877 57.64 72.6744 57.64H67.7144ZM73.4744 49.32C75.4477 49.32 77.2077 48.8133 78.7544 47.8C80.301 46.7867 81.421 45.4267 82.1144 43.72V42.36C81.261 41.72 80.061 41.2133 78.5144 40.84C77.021 40.4667 75.421 40.28 73.7144 40.28H68.6744C67.3944 40.28 66.3544 40.6 65.5544 41.24C64.7544 41.88 64.3544 42.7333 64.3544 43.8V45.88C64.3544 46.8933 64.781 47.72 65.6344 48.36C66.541 49 67.7144 49.32 69.1544 49.32H73.4744ZM100.993 17.08H111.073V21.88C112.246 20.2267 113.766 18.92 115.633 17.96C117.5 16.9467 119.366 16.44 121.233 16.44H126.033C130.3 16.44 133.713 17.7733 136.273 20.44C138.886 23.1067 140.193 26.6267 140.193 31V57H129.313V31.4C129.313 29.7467 128.86 28.4133 127.953 27.4C127.1 26.3867 125.98 25.88 124.593 25.88H119.793C117.926 25.88 116.246 26.5733 114.753 27.96C113.313 29.2933 112.353 31.0533 111.873 33.24V57H100.993V17.08ZM175.762 57L163.282 41L159.042 45.24V57H148.162V0.999996H159.042V33L174.802 17.08H187.442L170.322 34.04L188.082 57H175.762ZM198.617 13.32C196.537 13.32 194.857 12.7333 193.577 11.56C192.35 10.3333 191.737 8.73333 191.737 6.76C191.737 4.78666 192.35 3.21333 193.577 2.04C194.857 0.81333 196.537 0.199997 198.617 0.199997C200.697 0.199997 202.35 0.81333 203.577 2.04C204.857 3.21333 205.497 4.78666 205.497 6.76C205.497 8.73333 204.857 10.3333 203.577 11.56C202.35 12.7333 200.697 13.32 198.617 13.32ZM193.177 17.08H204.057V57H193.177V17.08ZM213.984 17.08H224.064V21.88C225.237 20.2267 226.757 18.92 228.624 17.96C230.49 16.9467 232.357 16.44 234.224 16.44H239.024C243.29 16.44 246.704 17.7733 249.264 20.44C251.877 23.1067 253.184 26.6267 253.184 31V57H242.304V31.4C242.304 29.7467 241.85 28.4133 240.944 27.4C240.09 26.3867 238.97 25.88 237.584 25.88H232.784C230.917 25.88 229.237 26.5733 227.744 27.96C226.304 29.2933 225.344 31.0533 224.864 33.24V57H213.984V17.08ZM276.673 73.24C272.406 73.24 268.859 72.0133 266.033 69.56C263.206 67.16 261.633 63.9867 261.313 60.04H272.033C272.139 61.2133 272.619 62.1467 273.473 62.84C274.326 63.5867 275.393 63.96 276.673 63.96H283.873C285.526 63.96 286.859 63.2667 287.873 61.88C288.939 60.5467 289.473 58.7867 289.473 56.6V52.84C288.406 54.0133 287.099 54.9467 285.553 55.64C284.059 56.3333 282.619 56.68 281.233 56.68H275.713C270.859 56.68 266.939 55.24 263.953 52.36C261.019 49.48 259.553 45.6933 259.553 41V32.84C259.553 29.5867 260.246 26.7333 261.633 24.28C263.019 21.7733 264.966 19.8533 267.473 18.52C269.979 17.1333 272.859 16.44 276.113 16.44H280.753C282.566 16.44 284.326 16.8667 286.033 17.72C287.793 18.5733 289.206 19.6933 290.273 21.08V17.08H300.353V56.6C300.353 59.9067 299.659 62.8133 298.273 65.32C296.939 67.8267 295.019 69.7733 292.513 71.16C290.006 72.5467 287.126 73.24 283.873 73.24H276.673ZM281.953 47.48C283.979 47.48 285.686 46.6533 287.073 45C288.459 43.2933 289.259 41.08 289.473 38.36V32.84C289.259 30.7067 288.539 29 287.313 27.72C286.086 26.44 284.539 25.8 282.673 25.8H277.073C275.099 25.8 273.499 26.52 272.273 27.96C271.046 29.4 270.433 31.2933 270.433 33.64V40.2C270.433 42.3867 270.993 44.1467 272.113 45.48C273.233 46.8133 274.673 47.48 276.433 47.48H281.953ZM46.24 96.44C50.2933 96.44 53.5467 97.7733 56 100.44C58.4533 103.053 59.68 106.493 59.68 110.76V137H48.8V110.76C48.8 109.267 48.4533 108.093 47.76 107.24C47.0667 106.333 46.16 105.88 45.04 105.88H41.6C40.1067 105.88 38.8 106.44 37.68 107.56C36.56 108.627 35.8667 110.067 35.6 111.88V137H24.72V110.84C24.72 109.347 24.3733 108.147 23.68 107.24C22.9867 106.333 22.08 105.88 20.96 105.88H17.84C16.2933 105.88 14.9333 106.573 13.76 107.96C12.5867 109.347 11.84 111.16 11.52 113.4V137H0.64V97.08H10.72V101.72C11.68 100.12 12.9067 98.84 14.4 97.88C15.9467 96.92 17.4933 96.44 19.04 96.44H23.52C25.44 96.44 27.1733 96.9467 28.72 97.96C30.32 98.9733 31.5733 100.387 32.48 102.2C33.6533 100.387 35.04 98.9733 36.64 97.96C38.2933 96.9467 40.0267 96.44 41.84 96.44H46.24ZM83.0925 137.64C79.7325 137.64 76.7458 137 74.1325 135.72C71.5725 134.387 69.5725 132.52 68.1325 130.12C66.7458 127.72 66.0525 124.947 66.0525 121.8V112.44C66.0525 109.293 66.7725 106.52 68.2125 104.12C69.6525 101.667 71.6525 99.7733 74.2125 98.44C76.8258 97.1067 79.8125 96.44 83.1725 96.44H90.3725C93.7325 96.44 96.6925 97.1067 99.2525 98.44C101.866 99.7733 103.892 101.667 105.333 104.12C106.773 106.52 107.493 109.293 107.493 112.44V121.8C107.493 124.947 106.773 127.72 105.333 130.12C103.892 132.52 101.866 134.387 99.2525 135.72C96.6925 137 93.7058 137.64 90.2925 137.64H83.0925ZM90.1325 128.28C92.1058 128.28 93.6792 127.613 94.8525 126.28C96.0258 124.893 96.6125 123.107 96.6125 120.92V113.16C96.6125 110.973 96.0258 109.213 94.8525 107.88C93.6792 106.493 92.1325 105.8 90.2125 105.8H83.3325C81.4125 105.8 79.8658 106.493 78.6925 107.88C77.5192 109.213 76.9325 110.973 76.9325 113.16V120.92C76.9325 123.107 77.5192 124.893 78.6925 126.28C79.8658 127.613 81.3858 128.28 83.2525 128.28H90.1325ZM114.353 97.08H124.433V102.2C125.446 100.653 126.886 99.4 128.753 98.44C130.673 97.4267 132.673 96.92 134.753 96.92H140.193V106.36H134.753C131.926 106.36 129.633 107.213 127.873 108.92C126.113 110.627 125.233 112.813 125.233 115.48V137H114.353V97.08ZM158.448 137.64C155.088 137.64 152.101 137.027 149.488 135.8C146.928 134.52 144.928 132.76 143.488 130.52C142.048 128.227 141.328 125.613 141.328 122.68V112.36C141.328 109.213 142.048 106.44 143.488 104.04C144.928 101.64 146.928 99.7733 149.488 98.44C152.101 97.1067 155.088 96.44 158.448 96.44H164.848C169.968 96.44 174.074 97.88 177.168 100.76C180.261 103.64 181.808 107.48 181.808 112.28V120.76H152.208V122.68C152.208 124.44 152.768 125.853 153.888 126.92C155.008 127.987 156.528 128.52 158.448 128.52H164.688C166.554 128.52 168.048 128.12 169.168 127.32C170.341 126.467 170.928 125.373 170.928 124.04H181.648C181.648 126.707 180.928 129.08 179.488 131.16C178.048 133.24 176.021 134.84 173.408 135.96C170.848 137.08 167.888 137.64 164.528 137.64H158.448ZM171.088 112.92V112.28C171.088 110.2 170.528 108.547 169.408 107.32C168.288 106.04 166.794 105.4 164.928 105.4H158.448C156.528 105.4 154.981 106.067 153.808 107.4C152.634 108.733 152.048 110.493 152.048 112.68V112.92H171.088ZM224.784 137.64C219.931 137.64 216.038 136.36 213.104 133.8C210.171 131.24 208.704 127.88 208.704 123.72H219.424C219.424 125.16 219.904 126.333 220.864 127.24C221.878 128.093 223.184 128.52 224.784 128.52H231.984C235.184 128.52 236.784 127.64 236.784 125.88V124.52C236.784 123.987 236.518 123.507 235.984 123.08C235.451 122.6 234.731 122.28 233.824 122.12L219.984 119.72C216.731 119.187 214.144 118.04 212.224 116.28C210.358 114.467 209.424 112.36 209.424 109.96V107.32C209.424 103.907 210.811 101.24 213.584 99.32C216.411 97.4 220.331 96.44 225.344 96.44H231.584C236.064 96.44 239.664 97.64 242.384 100.04C245.158 102.387 246.544 105.507 246.544 109.4H235.824C235.824 108.227 235.424 107.293 234.624 106.6C233.878 105.907 232.864 105.56 231.584 105.56H225.504C222.038 105.56 220.304 106.36 220.304 107.96V109.24C220.304 109.827 220.518 110.333 220.944 110.76C221.424 111.133 222.091 111.4 222.944 111.56L237.504 114.2C240.544 114.733 242.998 115.88 244.864 117.64C246.731 119.347 247.664 121.293 247.664 123.48V126.36C247.664 129.827 246.224 132.573 243.344 134.6C240.518 136.627 236.731 137.64 231.984 137.64H224.784ZM299.331 96.44C303.384 96.44 306.637 97.7733 309.091 100.44C311.544 103.053 312.771 106.493 312.771 110.76V137H301.891V110.76C301.891 109.267 301.544 108.093 300.851 107.24C300.157 106.333 299.251 105.88 298.131 105.88H294.691C293.197 105.88 291.891 106.44 290.771 107.56C289.651 108.627 288.957 110.067 288.691 111.88V137H277.811V110.84C277.811 109.347 277.464 108.147 276.771 107.24C276.077 106.333 275.171 105.88 274.051 105.88H270.931C269.384 105.88 268.024 106.573 266.851 107.96C265.677 109.347 264.931 111.16 264.611 113.4V137H253.731V97.08H263.811V101.72C264.771 100.12 265.997 98.84 267.491 97.88C269.037 96.92 270.584 96.44 272.131 96.44H276.611C278.531 96.44 280.264 96.9467 281.811 97.96C283.411 98.9733 284.664 100.387 285.571 102.2C286.744 100.387 288.131 98.9733 289.731 97.96C291.384 96.9467 293.117 96.44 294.931 96.44H299.331ZM333.383 137.64C329.223 137.64 325.863 136.6 323.303 134.52C320.743 132.44 319.463 129.693 319.463 126.28V123.32C319.463 119.96 320.796 117.267 323.463 115.24C326.13 113.16 329.65 112.12 334.023 112.12H338.903C340.29 112.12 341.783 112.307 343.383 112.68C344.983 113.053 346.45 113.56 347.783 114.2V110.04C347.783 108.707 347.33 107.64 346.423 106.84C345.57 105.987 344.423 105.56 342.983 105.56H336.103C334.61 105.56 333.41 105.907 332.503 106.6C331.596 107.293 331.143 108.227 331.143 109.4H320.583C320.583 105.507 321.996 102.387 324.823 100.04C327.703 97.64 331.463 96.44 336.103 96.44H342.983C347.676 96.44 351.463 97.6933 354.343 100.2C357.223 102.653 358.663 105.933 358.663 110.04V137H348.583V132.2C347.303 133.853 345.73 135.187 343.863 136.2C341.996 137.16 340.156 137.64 338.343 137.64H333.383ZM339.143 129.32C341.116 129.32 342.876 128.813 344.423 127.8C345.97 126.787 347.09 125.427 347.783 123.72V122.36C346.93 121.72 345.73 121.213 344.183 120.84C342.69 120.467 341.09 120.28 339.383 120.28H334.343C333.063 120.28 332.023 120.6 331.223 121.24C330.423 121.88 330.023 122.733 330.023 123.8V125.88C330.023 126.893 330.45 127.72 331.303 128.36C332.21 129 333.383 129.32 334.823 129.32H339.143ZM366.662 97.08H376.742V102.2C377.755 100.653 379.195 99.4 381.062 98.44C382.982 97.4267 384.982 96.92 387.062 96.92H392.502V106.36H387.062C384.235 106.36 381.942 107.213 380.182 108.92C378.422 110.627 377.542 112.813 377.542 115.48V137H366.662V97.08ZM416.327 137C411.634 137 408.194 135.933 406.007 133.8C403.82 131.667 402.727 128.36 402.727 123.88V106.36H395.687V97.08H403.047V85H413.607V97.08H424.007V106.36H413.607V123.4C413.607 124.893 413.874 125.987 414.407 126.68C414.994 127.373 415.9 127.72 417.127 127.72H424.007V137H416.327Z" fill="#222223"/>
</svg>
